<svg class="icon" aria-hidden="true" focusable="false" role="img" xmlns="http://www.w3.org/2000/svg" version="1.0" width="3073" height="1495" viewBox="800 460 1153 561">
    <path d="M1407.5 13.1c-122.2 8-228.8 71.4-299.9 178.4-23.6 35.5-39.8 68.7-52.4 107.5-13.8 42.5-18.3 79-15.2 123 6.8 99.1 39.5 191 110.5 310.5 13.4 22.5 19.9 34.3 26.7 48.5 27.9 58 49.4 125.5 64.8 203.5 4.1 21 9.3 52.7 10.5 64 .3 3.3 1.3 7.9 2.1 10.2 1.7 4.6 6.9 9.9 11.2 11 1.5.5 45.7.8 98.2.8 106.7 0 99.9.5 105.6-7.1l2.9-3.7.1-87.1c.2-88.5 0-94.9-3.6-127.6-2.9-26.2-10.8-80.2-12.6-86.3-.4-1.4.1-1.7 3.1-1.7 4.5 0 9.9-2.7 25.5-13 29.3-19.3 56-41.1 84.4-69 66.5-65.3 97-122.9 86.6-163.4-2.8-11.1-7.3-19-15.6-27.3-9.9-10-18.9-14.4-31.2-15-10.7-.6-18.3 1.6-28.4 8.3-18.5 12.3-33.3 34-69.3 101.4-19.9 37.2-30.8 56.1-41.9 72.5-7.9 11.7-19.8 26.7-24.9 31.3-3 2.8-2.3 4.4-6.7-15.3-11.7-52.3-28-107.6-37.9-129.1-7.9-16.8-17.9-28.9-31-37.5-9.2-6.1-18-9-29.7-9.6-11.9-.7-21.7 1.4-33.2 7.3-23.3 11.7-41.1 36.4-49.1 67.9-11.3 44.7 4.6 94.2 42.4 132 22.9 22.9 49 36.9 76.8 41.1 10.8 1.7 26.3 1.4 35.2-.6 2.6-.6 4.9-.9 5.1-.7 1.3 1.2 9.8 51.4 13.9 82.2 6.5 48 6.8 52.5 7.2 136.8l.4 77.7h-151.8l-1.2-9.8c-6.9-53.2-26.6-133.2-46.1-187.7-17.3-48.1-32.1-79.5-57.2-121.5-37.8-63.2-65.3-121-82.4-172.9-21.3-64.5-29.8-138.2-21.9-187.5 10-61.7 44.9-131.8 93.1-186.7 43.5-49.6 102.5-88.4 161.6-106.3 33.1-10 65-14.6 103.2-14.6 85.8-.2 158.9 20 221.1 60.9 37.9 25 68.3 55.4 94 94.1 39 58.8 59.1 123.8 58.4 189-.7 67.5-18.9 139.1-57.9 227.5-8.8 19.8-14.8 32.3-47.3 98.5-15.9 32.6-22.1 46.6-27 61.5-17.7 53.7-36.2 146.3-55.2 275.8-2.5 16.9-4.5 31.1-4.5 31.6 0 .4-5.3 1.3-11.7 2-6.5.6-15.4 1.6-19.8 2.2-4.4.5-22.8 2.8-41 5-132.9 16.2-223.8 34.2-259.3 51.5-9.6 4.7-17.2 10.7-19.8 15.5-2 4-1.8 14.5.5 19.4 3.7 8.3 15.1 15.6 29.8 19.2 4 1 7.3 2 7.3 2.3 0 .3-2.9 2.1-6.3 4-8.8 5-17.9 14.3-20 20.4-3.6 10.6-1.7 20.2 5.6 28.2 6.5 7.2 14.3 11.4 29.7 16.1.9.2-.9 1.7-4.5 3.7-15.7 8.4-23.5 15.6-26 23.8-1.9 6.5-1.9 10.1 0 16.5 6.9 23.1 59.5 36.2 149.5 37.2 10.1.1 18.6.3 18.7.5.2.2-2.2 2-5.2 4-6.4 4.2-9 8-10 14.2-1.2 8.2 5.2 17.5 13.1 19 7.4 1.4 10.6 0 27.6-11.3 9-6.1 22.6-14.9 30.3-19.8l14-8.8 12.5-1.3c44.7-4.9 73.5-15.2 81.7-29.1 2.4-4.1 2.8-5.9 2.8-12.3-.1-11.2-4.7-18.8-14-23.1-13.9-6.4-44.2 2.9-85.8 26.3l-8.8 5-12.2.7c-19.2 1.2-80.2.9-102.2-.5-30-2-58.5-5.9-67.7-9.3-2.1-.8-1.8-1.1 3.7-3.8 9.1-4.6 26.8-10.8 47.9-16.9l19.1-5.5 26.5-.4c32.5-.6 43.7-1.1 78-3.5 39.4-2.9 77.5-8.5 96-14.2 20.7-6.4 29.2-16.7 25.6-30.9-1.7-6.6-5.9-10.7-14.2-13.9-17.3-6.8-75.1-1.6-150.9 13.5-12.1 2.4-30.1 6.3-40 8.7-18 4.3-18 4.3-35.7 4.1-23.7-.2-42.9-2.1-59-5.9-4-1-6.5-2-6.2-2.6 2-3.1 33.1-14.5 57.4-21l12.5-3.3 16.5.7c16 .8 80.4.3 88.5-.6 2.2-.3 9.4-.8 16-1.1 11.4-.6 36.4-2.8 45-4 39.5-5.6 63.7-12.6 73.7-21.4 7.6-6.7 10-17.9 5.7-26.8-4-8.3-11.9-11.8-29.9-13.3-13.8-1.1-43.4.4-68 3.5-1.9.3-7.5.9-12.5 1.5-35.4 4.3-87.1 13.6-122.4 22.1-11.2 2.7-18.6 3.9-23.5 3.9-7.9 0-36.3-2.4-47.1-3.9-3.8-.6-7.7-1.1-8.5-1.1-6.3-.4 38.6-10.9 72.1-17 63-11.3 159.6-24.9 234.5-33 7.9-.9 12.3-1.9 15-3.4 6.9-3.9 7.6-6.3 13.3-46.1 8-56.2 11.2-76.8 20.2-127.5 11.9-67.9 24.4-122.7 34.9-154.2 4.7-14.1 10.4-26.7 31.2-68.8 42.4-85.9 57-119.3 73.4-168.5 15.6-47.1 23.8-84.4 28-128 2.2-23.1 1.5-64.2-1.4-83.2-8.5-54.4-26.8-104.2-54.8-149.1C1723.2 91.7 1623 30.7 1495 15.6c-23.4-2.8-65-4-87.5-2.5zm203.3 492.3c3.5 1.8 7.5 6.2 9.8 10.6 2.4 4.6 2.4 18.1 0 26.9-11 40.3-60.9 100.5-124.1 149.6-11.1 8.6-33.6 24.2-41 28.4l-4 2.3 3-2.4c27.6-21.6 50-52.7 83-115.3 36.2-68.7 52.2-93.3 65-99.9 3.7-2 4.9-2 8.3-.2zm-263.2 23.9c5.7 2.9 11.9 9.1 16.3 16.2 7.2 11.4 20.3 51 31.1 93.5 7.8 30.9 15 63.4 14.2 64.2-1.2 1.2-16.4 2.7-22.2 2.2-22.7-2-43.9-13-63.5-32.8-28.3-28.7-40.2-65.3-32-97.9 9-35.4 34.8-56.3 56.1-45.4z" fill="#f39e0b"/>
</svg>