<?xml version="1.0" standalone="no"?>
<!DOCTYPE svg PUBLIC "-//W3C//DTD SVG 20010904//EN"
 "http://www.w3.org/TR/2001/REC-SVG-20010904/DTD/svg10.dtd">
<svg version="1.0" xmlns="http://www.w3.org/2000/svg"
 width="512.000000pt" height="512.000000pt" viewBox="0 0 512.000000 512.000000"
 preserveAspectRatio="xMidYMid meet">

<g transform="translate(0.000000,512.000000) scale(0.100000,-0.100000)"
fill="#000000" stroke="none">
<path d="M1273 4088 l-1273 -510 0 -1529 0 -1529 380 0 380 0 2 1277 3 1278
1795 0 1795 0 3 -1278 2 -1277 380 0 380 0 0 1529 0 1529 -1277 511 c-703 281
-1282 511 -1288 510 -5 0 -583 -230 -1282 -511z"/>
<path d="M1030 2495 l0 -315 1530 0 1530 0 0 315 0 315 -1530 0 -1530 0 0
-315z"/>
<path d="M1030 1660 l0 -250 1530 0 1530 0 0 250 0 250 -1530 0 -1530 0 0
-250z"/>
<path d="M1030 835 l0 -315 1530 0 1530 0 0 315 0 315 -1530 0 -1530 0 0 -315z"/>
</g>
</svg>
